# xmcd
#
# Track frame offsets: 
#        150
#        18476
#        32146
#        51407
#        63341
#        74171
#        86210
#        98094
#        117735
#        132490
#        143071
#        161727
#        185697
#
# Disc length: 2714 seconds
#
# Revision: 1
# Processed by: cddbd v1.5.2PL0 Copyright (c) Steve Scherf et al.
# Submitted via: ExactAudioCopyFreeDBPlugin 1.0
#
DISCID=cc0a980d
DTITLE=Alan Jackson - Precious Memories Collection, Disc 2
DYEAR=2016
DGENRE=Country
TTITLE0=Amazing Grace
TTITLE1=He Lives
TTITLE2=Just As I Am
TTITLE3=Love Lifted Me
TTITLE4=O How I Love Jesus
TTITLE5=Only Trust Him
TTITLE6=There Is Power In The Blood
TTITLE7=Precious Memories
TTITLE8=Sweet Hour Of Prayer
TTITLE9=When The Roll Is Called Up Yonder
TTITLE10=Wherever He Leads I'll Go
TTITLE11=It's All About Him
TTITLE12=That's The Way
EXTD=
EXTT0=
EXTT1=
EXTT2=
EXTT3=
EXTT4=
EXTT5=
EXTT6=
EXTT7=
EXTT8=
EXTT9=
EXTT10=
EXTT11=
EXTT12=
PLAYORDER=
